<svg xmlns="http://www.w3.org/2000/svg" viewBox="0 0 24 24" fill="white">
  <path d="M18.164 7.93V5.084a2.198 2.198 0 0 0 .65-1.566A2.177 2.177 0 0 0 16.655 1.36a2.177 2.177 0 0 0-2.158 2.158c0 .603.244 1.146.65 1.545V7.93a5.48 5.48 0 0 0-2.974 1.813L8.43 6.666c.203-.304.32-.667.32-1.058a2.013 2.013 0 1 0-4.025 0c0 .912.62 1.67 1.462 1.919l3.766 3.099a5.475 5.475 0 0 0-.573 2.443 5.485 5.485 0 0 0 5.48 5.481c3.026 0 5.48-2.454 5.48-5.481a5.483 5.483 0 0 0-3.176-4.98zm-3.205 9.534a3.562 3.562 0 1 1 0-7.124 3.562 3.562 0 0 1 0 7.124z"/>
</svg>
