<svg xmlns="http://www.w3.org/2000/svg" viewBox="0 0 24 24" fill="white">
  <rect width="4" height="4" x="0" y="0"/>
  <rect width="4" height="4" x="5" y="0"/>
  <rect width="4" height="4" x="10" y="0"/>
  <rect width="4" height="4" x="15" y="0"/>
  <rect width="4" height="4" x="0" y="5"/>
  <rect width="4" height="4" x="15" y="5"/>
  <rect width="4" height="4" x="0" y="10"/>
  <rect width="4" height="4" x="5" y="10"/>
  <rect width="4" height="4" x="10" y="10"/>
  <rect width="4" height="4" x="15" y="10"/>
  <rect width="4" height="4" x="0" y="15"/>
  <rect width="4" height="4" x="5" y="15"/>
  <rect width="4" height="4" x="15" y="15"/>
  <rect width="4" height="4" x="0" y="20"/>
  <rect width="4" height="4" x="5" y="20"/>
  <rect width="4" height="4" x="10" y="20"/>
  <rect width="4" height="4" x="15" y="20"/>
  <rect width="4" height="4" x="20" y="0"/>
  <rect width="4" height="4" x="20" y="5"/>
  <rect width="4" height="4" x="20" y="10"/>
  <rect width="4" height="4" x="20" y="15"/>
  <rect width="4" height="4" x="20" y="20"/>
</svg>
