<svg xmlns="http://www.w3.org/2000/svg" viewBox="0 0 24 24" fill="white">
  <path d="M6 15a2 2 0 0 1-2 2a2 2 0 0 1-2-2a2 2 0 0 1 2-2h2v2zm1 0a2 2 0 0 1 2-2a2 2 0 0 1 2 2v5a2 2 0 0 1-2 2a2 2 0 0 1-2-2v-5zM9 6a2 2 0 0 1-2-2a2 2 0 0 1 2-2a2 2 0 0 1 2 2v2H9zm0 1a2 2 0 0 1 2 2a2 2 0 0 1-2 2H4a2 2 0 0 1-2-2a2 2 0 0 1 2-2h5zm9 2a2 2 0 0 1 2-2a2 2 0 0 1 2 2a2 2 0 0 1-2 2h-2V9zm-1 0a2 2 0 0 1-2 2a2 2 0 0 1-2-2V4a2 2 0 0 1 2-2a2 2 0 0 1 2 2v5zm-2 9a2 2 0 0 1 2 2a2 2 0 0 1-2 2a2 2 0 0 1-2-2v-2h2zm0-1a2 2 0 0 1-2-2a2 2 0 0 1 2-2h5a2 2 0 0 1 2 2a2 2 0 0 1-2 2h-5z"/>
</svg>
